<?xml version="1.0" encoding="utf-8"?>
<!-- Generator: Adobe Illustrator 25.2.1, SVG Export Plug-In . SVG Version: 6.00 Build 0)  -->
<svg version="1.1" id="Layer_1" xmlns="http://www.w3.org/2000/svg" xmlns:xlink="http://www.w3.org/1999/xlink" x="0px" y="0px"
	 viewBox="0 0 100 100" enable-background="new 0 0 100 100" xml:space="preserve">
<g>
	
		<line fill="none" stroke="#6D6E70" stroke-width="4" stroke-linecap="round" stroke-linejoin="round" x1="49.4" y1="6.9" x2="2.7" y2="52.6"/>
	<path fill="none" stroke="#6D6E70" stroke-width="4" stroke-linecap="round" stroke-linejoin="round" d="M49.4,6.9"/>
	
		<line fill="none" stroke="#6D6E70" stroke-width="4" stroke-linecap="round" stroke-linejoin="round" x1="96.5" y1="53.1" x2="49.4" y2="6.9"/>
	<path fill="none" stroke="#6D6E70" stroke-width="4" stroke-linecap="round" stroke-linejoin="round" d="M49.4,6.9"/>
</g>
<g>
	
		<line fill="none" stroke="#FFFFFF" stroke-width="4" stroke-linecap="round" stroke-linejoin="round" x1="49" y1="5.3" x2="2.3" y2="51.1"/>
	<path fill="none" stroke="#FFFFFF" stroke-width="4" stroke-linecap="round" stroke-linejoin="round" d="M49,5.3"/>
	
		<line fill="none" stroke="#FFFFFF" stroke-width="4" stroke-linecap="round" stroke-linejoin="round" x1="96.1" y1="51.6" x2="49" y2="5.3"/>
	<path fill="none" stroke="#FFFFFF" stroke-width="4" stroke-linecap="round" stroke-linejoin="round" d="M49,5.3"/>
</g>
<path fill="#6D6E70" stroke="#6D6E70" stroke-width="1.3091" stroke-miterlimit="10" d="M42.8,63.2h18.5v5.1h-11v4.2h9.4v4.8h-9.4
	V87h-7.5V63.2z"/>
<path fill="#6D6E70" stroke="#6D6E70" stroke-width="1.3091" stroke-miterlimit="10" d="M66.5,63.2h22.7v5.1H76.6v3.8h11.7v4.8H76.6
	v4.7h12.9V87H66.5V63.2z"/>
<path fill="#6D6E70" stroke="#6D6E70" stroke-miterlimit="10" d="M29.6,63.2v8.5l-8.4,0c0,0,0,6,0,6h8.3v9.4h7.4V63.2H29.6z"/>
<path fill="#6D6E70" stroke="#6D6E70" stroke-width="0.1754" stroke-miterlimit="10" d="M17.2,72.7c0.5,0.5,0.9,0.9,1.3,1.3
	c0.4,0.4,0.4,0.6,0,1c-0.4,0.4-0.9,0.8-1.3,1.3c0.5,0.5,0.9,0.9,1.4,1.3c0.4,0.4,0.4,0.6,0,1c-0.4,0.4-0.9,0.8-1.3,1.3
	c0.4,0.4,0.8,0.8,1.2,1.2c0.5,0.5,0.5,0.7,0,1.2c-0.4,0.4-0.8,0.8-1.2,1.2c0,0,0,0.1-0.1,0.1c0.5,0.6,0.9,1.2,1.4,1.7
	c0.3,0.4,0.3,0.6,0,1c-0.7,0.9-1.5,1.7-2.2,2.6c-0.3,0.4-0.7,0.4-1,0c-0.8-0.9-1.5-1.8-2.2-2.7C13,86.2,13,85.9,13,85.7
	c0-4.3,0-8.6,0-12.9c0-1,0-2.1,0-3.1c0-0.3-0.1-0.4-0.3-0.6c-3.2-1.6-4.6-5.3-3.4-8.6c1.2-3.3,4.7-5.2,8.1-4.5
	c2.9,0.6,5.2,3,5.6,5.7c0.4,3.1-1,5.9-3.8,7.3c-0.3,0.1-0.4,0.3-0.3,0.6c0.2,1-0.2,1.8-1,2.4C17.6,72.3,17.4,72.5,17.2,72.7z
	 M16.8,61.1c0.5-0.5,0.5-1.3,0-1.8c-0.5-0.5-1.3-0.5-1.8,0c-0.5,0.5-0.5,1.3-0.1,1.8C15.5,61.6,16.3,61.6,16.8,61.1z"/>
<path fill="#FFFFFF" stroke="#FFFFFF" stroke-width="1.3091" stroke-miterlimit="10" d="M42.4,62.5h18.5v5.1h-11v4.2h9.4v4.8h-9.4
	v9.7h-7.5V62.5z"/>
<path fill="#FFFFFF" stroke="#FFFFFF" stroke-width="1.3091" stroke-miterlimit="10" d="M66.1,62.5h22.7v5.1H76.3v3.8h11.7v4.8H76.3
	v4.7h12.9v5.4H66.1V62.5z"/>
<path fill="#FFFFFF" stroke="#FFFFFF" stroke-width="1.3091" stroke-miterlimit="10" d="M29.2,62.4v8.5l-8.4,0c0,0,0,6,0,6h8.3v9.4
	h7.4V62.4H29.2z"/>
<path fill="#008080" d="M16.8,72c0.5,0.5,0.9,0.9,1.3,1.3c0.4,0.4,0.4,0.6,0,1c-0.4,0.4-0.9,0.8-1.3,1.3c0.5,0.5,0.9,0.9,1.4,1.3
	c0.4,0.4,0.4,0.6,0,1c-0.4,0.4-0.9,0.8-1.3,1.3c0.4,0.4,0.8,0.8,1.2,1.2c0.5,0.5,0.5,0.7,0,1.2c-0.4,0.4-0.8,0.8-1.2,1.2
	c0,0,0,0.1-0.1,0.1c0.5,0.6,0.9,1.2,1.4,1.7c0.3,0.4,0.3,0.6,0,1c-0.7,0.9-1.5,1.7-2.2,2.6c-0.3,0.4-0.7,0.4-1,0
	c-0.8-0.9-1.5-1.8-2.2-2.7c-0.1-0.2-0.2-0.5-0.2-0.7c0-4.3,0-8.6,0-12.9c0-1,0-2.1,0-3.1c0-0.3-0.1-0.4-0.3-0.6
	c-3.2-1.6-4.6-5.3-3.4-8.6c1.2-3.3,4.7-5.2,8.1-4.5c2.9,0.6,5.2,3,5.6,5.7c0.4,3.1-1,5.9-3.8,7.3c-0.3,0.1-0.4,0.3-0.3,0.6
	c0.2,1-0.2,1.8-1,2.4C17.2,71.5,17,71.7,16.8,72z M16.4,60.4c0.5-0.5,0.5-1.3,0-1.8c-0.5-0.5-1.3-0.5-1.8,0
	c-0.5,0.5-0.5,1.3-0.1,1.8C15.1,60.8,15.9,60.9,16.4,60.4z"/>
</svg>
