<svg xmlns="http://www.w3.org/2000/svg" width="612" height="792" viewBox="0 0 612 792">
    <path d="M287.13026,483.26268q0-18.53989,10.32816-28.864,10.32515-10.32816,28.75922-10.32816,18.89667,0,29.12,10.14675Q365.563,464.364,365.563,482.64186q0,13.273-4.46667,21.76494a31.88479,31.88479,0,0,1-12.90819,13.21859q-8.44454,4.72266-21.04131,4.72064-12.80742,0-21.19653-4.07563a31.91323,31.91323,0,0,1-13.60358-12.90819Q287.12825,496.52765,287.13026,483.26268Zm23.39156.10078q0,11.465,4.25905,16.47185,4.26008,5.00687,11.592,5.00687,7.5375,0,11.66857-4.902,4.13005-4.90407,4.13-17.60868,0-10.68492-4.31146-15.61721-4.31146-4.9343-11.69477-4.9343a14.20961,14.20961,0,0,0-11.35816,5.01089Q310.5198,471.7977,310.52182,483.36346Z" style="fill:#6d6e71;stroke:#6d6e71;stroke-miterlimit:10;stroke-width:4.12804049003967px"/>
    <path d="M291.15525,570.92416H314.5468V627.979h36.50333v18.64069H291.15525Z" style="fill:#6d6e71;stroke:#6d6e71;stroke-miterlimit:10;stroke-width:4.12804049003967px"/>
    <path d="M367.61233,570.92416h23.43993v75.69553H367.61233Z" style="fill:#6d6e71;stroke:#6d6e71;stroke-miterlimit:10;stroke-width:4.12804049003967px"/>
    <path d="M147,327v27l-26.10444-.12786C120.89656,354.00091,121,373,121,373h26v30h23V327Z" style="fill:#6d6e71;stroke:#6d6e71;stroke-miterlimit:10;stroke-width:4.12804049003967px"/>
    <path d="M182.62037,365.394q0-18.53385,10.32816-28.864,10.32515-10.32213,28.75922-10.32414,18.89667,0,29.12,10.14676,10.22537,10.14071,10.22537,28.42059,0,13.273-4.46667,21.76493a31.83785,31.83785,0,0,1-12.90819,13.2186q-8.44455,4.72266-21.04132,4.72467-12.8074,0-21.19652-4.07966a31.88932,31.88932,0,0,1-13.60358-12.90819Q182.61835,378.665,182.62037,365.394Zm23.39156.10481q0,11.459,4.25905,16.47185,4.26007,5.00687,11.592,5.00686,7.5375,0,11.66856-4.90608,4.13005-4.90406,4.13006-17.60464,0-10.691-4.31146-15.62125-4.31146-4.92825-11.69477-4.93026a14.20636,14.20636,0,0,0-11.35816,5.00686Q206.00991,353.935,206.01193,365.4988Z" style="fill:#6d6e71;stroke:#6d6e71;stroke-miterlimit:10;stroke-width:4.12804049003967px"/>
    <path d="M273.39291,327.49584h30.76076l11.86408,46.05748,11.77742-46.05748h30.74261v75.69552H339.38109V345.46329l-14.76056,57.72807H307.282L292.5496,345.46329v57.72807H273.39291Z" style="fill:#6d6e71;stroke:#6d6e71;stroke-miterlimit:10;stroke-width:4.12804049003967px"/>
    <path d="M373.40719,327.49584h62.68252v16.16143H396.84914v12.02937h36.40053v15.43984H396.84914v14.9198h40.3774v17.14508H373.40719Z" style="fill:#6d6e71;stroke:#6d6e71;stroke-miterlimit:10;stroke-width:4.12804049003967px"/>
    <path d="M445.74667,378.149l22.25271-1.39483q.72261,5.4241,2.94486,8.26011,3.613,4.59567,10.32615,4.59567,5.00686,0,7.7179-2.35024a7.03355,7.03355,0,0,0,2.71105-5.44627,6.94119,6.94119,0,0,0-2.582-5.26486q-2.582-2.32808-11.979-4.39008-15.38643-3.45885-21.94231-9.19134a18.47843,18.47843,0,0,1-6.6093-14.61342,19.84088,19.84088,0,0,1,3.38225-11.02155,22.42746,22.42746,0,0,1,10.171-8.15933q6.78768-2.969,18.61447-2.967,14.5066,0,22.12372,5.39387,7.61611,5.39991,9.06234,17.16926l-22.04712,1.29q-.87983-5.10966-3.69266-7.4337-2.81486-2.322-7.77031-2.32605-4.07867,0-6.14369,1.72942a5.30192,5.30192,0,0,0-2.066,4.20867,4.21692,4.21692,0,0,0,1.70321,3.25325q1.65384,1.49964,7.84893,2.78965,15.335,3.30164,21.97052,6.68791a23.09413,23.09413,0,0,1,9.65494,8.38912,21.27134,21.27134,0,0,1,3.01944,11.20295,23.99611,23.99611,0,0,1-4.02726,13.42419,25.172,25.172,0,0,1-11.25536,9.32034q-7.22911,3.17464-18.22748,3.17666-19.31088,0-26.74559-7.4337A29.33269,29.33269,0,0,1,445.74667,378.149Z" style="fill:#6d6e71;stroke:#6d6e71;stroke-miterlimit:10;stroke-width:4.12804049003967px"/>
    <path d="M132.54319,445.3605H190.372v16.26625h-34.3365v13.2186h29.32763V490.128H156.03553v30.928H132.54319Z" style="fill:#6d6e71;stroke:#6d6e71;stroke-miterlimit:10;stroke-width:4.12804049003967px"/>
    <path d="M206.60016,521.056V445.3605h38.98257q10.84518,0,16.57464,1.86245a17.64843,17.64843,0,0,1,9.24375,6.88948,21.36671,21.36671,0,0,1-6.56294,30.541,28.24588,28.24588,0,0,1-8.21577,2.99525,23.29544,23.29544,0,0,1,6.08927,2.79368,23.64721,23.64721,0,0,1,3.741,3.97888,29.82439,29.82439,0,0,1,3.27543,4.70049L281.05606,521.056H254.62693l-12.503-23.13154q-2.37645-4.49288-4.23285-5.83327a9.82853,9.82853,0,0,0-5.7325-1.75765h-2.064V521.056Zm23.49435-45.02144h9.86054a35.28509,35.28509,0,0,0,6.19609-1.036,6.16648,6.16648,0,0,0,3.79546-2.37443,7.667,7.667,0,0,0-.85262-10.01775q-2.322-1.95921-8.72573-1.95921H230.09451Z" style="fill:#6d6e71;stroke:#6d6e71;stroke-miterlimit:10;stroke-width:4.12804049003967px"/>
    <path d="M381.20371,445.3605h30.76075L423.82855,491.418,435.606,445.3605h30.74261V521.056H447.19188V463.332l-14.76056,57.724H415.09274l-14.73235-57.724v57.724H381.20371Z" style="fill:#6d6e71;stroke:#6d6e71;stroke-miterlimit:10;stroke-width:4.12804049003967px"/>
    <path d="M411.31253,621.57731l22.25271-1.39482q.72261,5.4241,2.94486,8.26414,3.613,4.59567,10.32615,4.59164,5.00686,0,7.7179-2.34621a7.04116,7.04116,0,0,0,2.711-5.4503,6.94744,6.94744,0,0,0-2.582-5.26487q-2.582-2.322-11.979-4.39007-15.38643-3.45885-21.94231-9.19134a18.47036,18.47036,0,0,1-6.6093-14.60939,19.84387,19.84387,0,0,1,3.38225-11.02558,22.42054,22.42054,0,0,1,10.17094-8.1553q6.78769-2.969,18.61448-2.97106,14.5066,0,22.12372,5.39386,7.61611,5.39993,9.06234,17.16927l-22.04712,1.29q-.87984-5.10966-3.69266-7.4337-2.81486-2.322-7.77031-2.322-4.07867,0-6.14369,1.72942a5.29627,5.29627,0,0,0-2.066,4.20867,4.21694,4.21694,0,0,0,1.70322,3.25325q1.65384,1.49359,7.84892,2.78562,15.335,3.30768,21.97053,6.68791a23.09411,23.09411,0,0,1,9.65494,8.38911,21.27546,21.27546,0,0,1,3.01944,11.207,24.00562,24.00562,0,0,1-4.02726,13.42419,25.22374,25.22374,0,0,1-11.25536,9.32034q-7.22911,3.17465-18.22748,3.17263-19.31088,0-26.74559-7.4337A29.32353,29.32353,0,0,1,411.31253,621.57731Z" style="fill:#6d6e71;stroke:#6d6e71;stroke-miterlimit:10;stroke-width:4.12804049003967px"/>
    <path d="M128.60576,570.92416h70.9386V587.0856H160.30379V599.115h36.40053v15.43984H160.30379v14.92383h40.3774v17.141H128.60576Z" style="fill:#6d6e71;stroke:#6d6e71;stroke-miterlimit:10;stroke-width:4.12804049003967px"/>
    <path d="M216.92564,570.92416H240.3172V627.979h36.50332v18.64069H216.92564Z" style="fill:#6d6e71;stroke:#6d6e71;stroke-miterlimit:10;stroke-width:4.12804049003967px"/>
    <line x1="41.27774" y1="339.09682" x2="314.69341" y2="65.68115" style="fill:#6d6e71;stroke:#6d6e71;stroke-miterlimit:10;stroke-width:28.8962834302777px"/>
    <line x1="570.72226" y1="342.09143" x2="297.30659" y2="68.67576" style="fill:#6d6e71;stroke:#6d6e71;stroke-miterlimit:10;stroke-width:28.8962834302777px"/>
    <path d="M108.75828,365.51759c1.449,1.449,2.84443,2.816,4.20688,4.215,1.31948,1.35494,1.30517,1.917-.04148,3.28352-1.33728,1.357-2.69229,2.69662-4.18159,4.18592,1.47389,1.47388,2.856,2.84218,4.22218,4.22616,1.30132,1.31825,1.31209,1.96662.0098,3.30736-1.32662,1.36578-2.68857,2.69723-4.18277,4.19143,1.35633,1.35633,2.632,2.62121,3.89548,3.89815,1.6474,1.665,1.64952,2.23686.03777,3.85836q-1.86535,1.87662-3.73233,3.7516a2.73453,2.73453,0,0,0-.2438.42221c1.44655,1.82443,2.88946,3.74614,4.44625,5.57066a2.10423,2.10423,0,0,1-.05441,3.17682c-2.3242,2.718-4.56614,5.50632-6.84544,8.26281-1.01435,1.2267-2.10034,1.26358-3.13572.00465-2.367-2.87805-4.72883-5.763-6.98588-8.72659a3.98436,3.98436,0,0,1-.51193-2.26983q-.03533-20.48463-.00437-40.96939c.00133-3.32623-.02138-6.65275.01848-9.97852a1.747,1.747,0,0,0-1.07292-1.87254,22.23921,22.23921,0,1,1,20.41643-.01665,1.597,1.597,0,0,0-1.07862,1.86653,7.26779,7.26779,0,0,1-3.21543,7.67429A18.6238,18.6238,0,0,0,108.75828,365.51759Zm-1.1914-36.89553a3.98231,3.98231,0,1,0-5.68342-.15555A3.952,3.952,0,0,0,107.56688,328.62206Z" style="fill:#008080"/>
</svg>