<?xml version="1.0" encoding="utf-8"?>
<!-- Generator: Adobe Illustrator 25.2.0, SVG Export Plug-In . SVG Version: 6.00 Build 0)  -->
<svg version="1.1" id="Layer_1" xmlns="http://www.w3.org/2000/svg" xmlns:xlink="http://www.w3.org/1999/xlink" x="0px" y="0px"
	 viewBox="0 0 100 100" enable-background="new 0 0 100 100" xml:space="preserve">
<g>
	<line fill="none" stroke="#231F20" stroke-width="4.6591" stroke-miterlimit="10" x1="7.2" y1="58.4" x2="49.5" y2="16.1"/>
	<line fill="none" stroke="#231F20" stroke-width="4.6591" stroke-miterlimit="10" x1="92.8" y1="58.3" x2="48.7" y2="14.3"/>
	<g>
		<line fill="#6D6E70" stroke="#6D6E70" stroke-width="4.6591" stroke-miterlimit="10" x1="6.4" y1="57.9" x2="50.5" y2="13.8"/>
		<line fill="#6D6E70" stroke="#6D6E70" stroke-width="4.6591" stroke-miterlimit="10" x1="91.8" y1="58.3" x2="47.7" y2="14.3"/>
	</g>
</g>
<g>
	<path fill="#231F20" stroke="#231F20" stroke-width="1.2031" stroke-miterlimit="10" d="M43.2,63.6H60v4.7H50v3.9h8.5v4.5H50v9
		h-6.8V63.6z"/>
	<path fill="#231F20" stroke="#231F20" stroke-width="1.2031" stroke-miterlimit="10" d="M64.8,63.6h20.7v4.7H74v3.5h10.6v4.5H74
		v4.3h11.8v5h-21V63.6z"/>
	<path fill="#231F20" stroke="#231F20" stroke-width="1.2031" stroke-miterlimit="10" d="M31.2,63.6v7.9l-7.6,0c0,0,0,5.6,0,5.6h7.6
		v8.7h6.7V63.6H31.2z"/>
	<path fill="#231F20" stroke="#231F20" stroke-width="0.1612" stroke-miterlimit="10" d="M19.9,72.4c0.4,0.4,0.8,0.8,1.2,1.2
		c0.4,0.4,0.4,0.6,0,1c-0.4,0.4-0.8,0.8-1.2,1.2c0.4,0.4,0.8,0.8,1.2,1.2c0.4,0.4,0.4,0.6,0,1c-0.4,0.4-0.8,0.8-1.2,1.2
		c0.4,0.4,0.8,0.8,1.1,1.1c0.5,0.5,0.5,0.7,0,1.1c-0.4,0.4-0.7,0.7-1.1,1.1c0,0,0,0-0.1,0.1c0.4,0.5,0.8,1.1,1.3,1.6
		c0.3,0.3,0.3,0.6,0,0.9c-0.7,0.8-1.3,1.6-2,2.4c-0.3,0.4-0.6,0.4-0.9,0c-0.7-0.8-1.4-1.7-2-2.5c-0.1-0.2-0.1-0.4-0.1-0.7
		c0-4,0-8,0-11.9c0-1,0-1.9,0-2.9c0-0.3-0.1-0.4-0.3-0.5c-2.9-1.5-4.2-4.9-3.1-8c1.1-3,4.2-4.8,7.4-4.1c2.6,0.5,4.7,2.7,5.1,5.3
		c0.4,2.8-0.9,5.5-3.4,6.8c-0.3,0.1-0.4,0.3-0.3,0.5c0.2,0.9-0.2,1.7-0.9,2.2C20.3,72,20.1,72.2,19.9,72.4z M19.5,61.6
		c0.5-0.5,0.5-1.2,0-1.7c-0.4-0.5-1.2-0.5-1.6,0c-0.5,0.4-0.5,1.2,0,1.6C18.3,62.1,19.1,62.1,19.5,61.6z"/>
	<path fill="#6D6E70" stroke="#6D6E70" stroke-width="1.2031" stroke-miterlimit="10" d="M42.9,62.9h16.9v4.7h-10v3.9h8.5v4.5h-8.5
		v9h-6.8V62.9z"/>
	<path fill="#6D6E70" stroke="#6D6E70" stroke-width="1.2031" stroke-miterlimit="10" d="M64.5,62.9h20.7v4.7H73.7v3.5h10.6v4.5
		H73.7V80h11.8v5h-21V62.9z"/>
	<path fill="#6D6E70" stroke="#6D6E70" stroke-width="1.2031" stroke-miterlimit="10" d="M30.9,62.8v7.9l-7.6,0c0,0,0,5.6,0,5.6h7.6
		V85h6.7V62.8H30.9z"/>
	<path fill="#008080" d="M19.6,71.7c0.4,0.4,0.8,0.8,1.2,1.2c0.4,0.4,0.4,0.6,0,1c-0.4,0.4-0.8,0.8-1.2,1.2c0.4,0.4,0.8,0.8,1.2,1.2
		c0.4,0.4,0.4,0.6,0,1c-0.4,0.4-0.8,0.8-1.2,1.2c0.4,0.4,0.8,0.8,1.1,1.1c0.5,0.5,0.5,0.7,0,1.1c-0.4,0.4-0.7,0.7-1.1,1.1
		c0,0,0,0-0.1,0.1c0.4,0.5,0.8,1.1,1.3,1.6c0.3,0.3,0.3,0.6,0,0.9c-0.7,0.8-1.3,1.6-2,2.4c-0.3,0.4-0.6,0.4-0.9,0
		c-0.7-0.8-1.4-1.7-2-2.5c-0.1-0.2-0.1-0.4-0.1-0.7c0-4,0-8,0-11.9c0-1,0-1.9,0-2.9c0-0.3-0.1-0.4-0.3-0.5c-2.9-1.5-4.2-4.9-3.1-8
		c1.1-3,4.2-4.8,7.4-4.1c2.6,0.5,4.7,2.7,5.1,5.3c0.4,2.8-0.9,5.5-3.4,6.8c-0.3,0.1-0.4,0.3-0.3,0.5c0.2,0.9-0.2,1.7-0.9,2.2
		C19.9,71.3,19.8,71.5,19.6,71.7z M19.2,60.9c0.5-0.5,0.5-1.2,0-1.7c-0.4-0.5-1.2-0.5-1.6,0c-0.5,0.4-0.5,1.2,0,1.6
		C18,61.4,18.8,61.4,19.2,60.9z"/>
</g>
</svg>
