<?xml version="1.0" encoding="utf-8"?>
<!-- Generator: Adobe Illustrator 25.2.1, SVG Export Plug-In . SVG Version: 6.00 Build 0)  -->
<svg version="1.1" id="Layer_1" xmlns="http://www.w3.org/2000/svg" xmlns:xlink="http://www.w3.org/1999/xlink" x="0px" y="0px"
	 viewBox="0 0 1920 1080" enable-background="new 0 0 1920 1080" xml:space="preserve">
<path fill="none" stroke="#000000" stroke-width="4" stroke-linecap="round" stroke-linejoin="round" stroke-miterlimit="10" d="
	M928.9,347c-4,0.9-8,1.1-12,0.2c-0.6-1.2-0.4-2.4-0.4-3.7c0-10.5-0.1-20.9,0.1-31.4c0.1-2.9-1.3-4.1-3.5-5.1
	c-3.7-1.6-3.7-1.6-3.7-5.4c0-32.3,0-64.6,0-96.9c0-3.7,0-3.7-3.7-3.7c-14.7,0-29.4,0-44.1,0c-3.2,0-4.2,1.1-3.6,4.2
	c0.2,1,0.2,1.9,0.2,2.8c0,31.1,0,62.2,0,93.3c0,2.8-0.3,4.9-3.7,5.8c-2.2,0.6-3.7,2.3-3.5,5.3c0.3,4.2,0,8.5,0.1,12.7
	c0,1.7-0.6,2.3-2.3,2.3c-7.2-0.1-14.3-0.1-21.5,0c-2.1,0-2.6-0.9-2.6-2.8c0.1-14.5,0-29,0.1-43.5c0-1.7,0-3.1-2-3.7
	c-1.3-0.4-1.4-1.4-1.4-2.5c0-2.7,0-5.5,0-8.2c0-1.5,0.2-3.1-1.4-4c-0.9-0.5-0.9-1.4-0.8-2.3c0.8-8.3-1.9-15.2-7.9-21
	c-1.3-1.2-1.5-3.3-3.4-4.3c-1.1-0.6-2-1-3.2-1c-3.5,0-7,0-10.5,0c-2.9,0-5.1,0.9-6,3.9c-0.2,0.6-0.8,1.2-1.4,1.7
	c-5.9,5.2-7.6,12-7.6,19.5c0,1.7,0.1,3.4-1.7,4.2c-1.2,0.5-0.8,1.4-0.8,2.3c0,3,0,6,0,9c0,1.2-0.1,2.3-1.4,2.8
	c-1.6,0.6-1.8,1.9-1.7,3.4c0.2,3.4-0.8,6.8,0,10.2c0.2,1-0.7,1.7-0.6,2.7c-1.7,0.7-3.6,0.4-5.4,0.4c-7.1-0.1-14.1,0.3-21.2-0.2
	c-2.4-0.2-3.5,0.6-3.4,3.4c0.1,11.5,0.1,23,0.1,34.5c0,3.6-0.3,4-4,4c-4,0-7.9,0-11.9,0c-3.5,0-3.9-0.4-4-4c0-12.3,0-24.7,0-37
	c0-3.8,0-3.7-4-4c-0.8-0.1-1.6-0.4-2.3-1.3c-1.3-1.6-3-3.1-4.8-4.2c-1.4-0.9-3.2-0.2-4.8-0.3c-1.6-0.1-2.9,0-3.6-2.2
	c-0.5-1.5-2.8-2.5-4.3-3.7"/>
<path fill="none" stroke="#000000" stroke-width="4" stroke-linecap="round" stroke-linejoin="round" stroke-miterlimit="10" d="
	M575.6,353c-0.1-2.4-0.4-4.8,0.9-7.1c0.3-0.6,0.3-1.5,0.2-2.2c-1.5-5.4-0.5-10.9-0.8-16.4c0-0.4-0.1-0.8-0.1-1
	c-0.4-0.1-0.7-0.3-1-0.4c-3.6-1.1-3.6-1.1-3.9-5.1c-0.1-1-0.3-1.8-1.2-2.3c-1.7-0.9-1.8-2.4-1.7-4c0.1-1.3,0.4-2.8-0.1-3.9
	c-1.2-3.4-1.2-7.6-4.3-9.8c-4-3-8.6-5.1-12.9-7.8c-1-0.7-1.6-0.3-2.3,0.1c-5,2.5-9.6,5.6-14.2,8.7c-0.8,0.6-0.7,1.1-0.8,1.8
	c-0.1,1,0.4,2-0.7,3.1c-2.8,0.1-3.3,2.1-3,4.8c0.1,1.1-0.1,2.3,0,3.4c0.1,1.8-0.1,3.3-2.3,3.7c-1.6,0.3-1.6,1.9-1.4,3.1
	c0.5,2.3,0.6,4-2.6,4c-1.7,0-1.7,1.4-1.7,2.8c0,9.2,0,18.5,0,27.7c0,1.1-0.1,2.2-0.2,3.3c-4.5,1.3-9,0.4-13.4,0.6
	c-1.4,0.1-1.4-1.2-1.4-2.2c0-4.3-0.1-8.7,0.1-13c0.1-2.7-1-3.6-3.4-3.4c-5.8,0.5-11.7,0.1-17.5,0.2c-5.7,0.1-11.5,0.1-17.2,0
	c-2.1,0-2.9,0.7-2.9,2.9c0.1,10.8,0,21.7,0.1,32.5c0,6.2,0.1,6.2-6.2,6.2c-21.8,0-43.5,0-65.3,0"/>
<path fill="none" stroke="#000000" stroke-width="4" stroke-linecap="round" stroke-linejoin="round" stroke-miterlimit="10" d="
	M1141.4,389.2c-17.4,0-34.8,0-52,0c-0.7-1.5-0.6-2.7-0.6-4c0-10.9,0-21.9,0-32.8c0-2.9-0.2-3.1-3.1-3.1c-15,0-30,0-44.9,0
	c-1.6,0-3.2,0.2-4.8-0.8c-0.5-3.1-0.2-6.5-0.2-9.9c0-1.3-0.2-2.2-1.7-2.9c-3.4-1.6-7-2.3-10.5-3.3c-3-0.9-6-1.8-9-2.5
	c-2.8-0.7-5.5-1.9-8.5-2"/>
<path fill="none" stroke="#000000" stroke-width="4" stroke-linecap="round" stroke-linejoin="round" stroke-miterlimit="10" d="
	M1000.7,327.6c-5.4,0.3-5.4,0.3-5.4-4.8c0-28.1,0-56.2,0-84.2c0-3.8-0.4-4.2-4.2-4.2c-14.1,0-28.3,0-42.4,0c-3.2,0-3.7,0.4-3.7,3.7
	c0,4.1-0.1,8.1,0,12.2c0.1,1.9-0.6,2.6-2.6,2.6c-3.6-0.1-7.2,0-10.7,0c-3.1,0-3.6,0.5-3.7,3.7c0,6.6,0,13.2,0,19.8
	c0,13.6,0,27.1,0,40.7c0,9,0,17.9,0,26.9c0,1-0.2,2.1-0.3,3.1"/>
<path fill="none" stroke="#000000" stroke-width="4" stroke-linecap="round" stroke-linejoin="round" stroke-miterlimit="10" d="
	M653.6,314.3c0.1,2.9-0.9,4.6-3.4,4.7c-2.3,0.1-3.9,1.1-5,2.9c-0.6,1-1.5,1.1-2.3,1.3c-1.4,0.5-9.9-0.1-11.8-0.6
	c0-10.4,0-20.9,0-31.4c-1.6-0.1-2.7-1.4-4-0.4c-0.4-0.6-1.8,0.3-1.7-1.1c0-0.3-0.5-0.5-0.8-0.9c-2.4-2.9-5.3-4.7-9.3-4
	c-1.6,0.3-3.1,0.4-3.5-2.2c-0.3-1.9-3.8-3.8-4.9-3.1c-1.4,0.9-3.1,2-3.6,3.4c-0.6,1.9-1.8,2.1-3,1.9c-4.5-0.7-7.6,1.3-10.2,4.6
	c-0.7,0.9-1.6,1.3-2.8,1.2c-2.8-0.2-3.4,0.4-3.4,3.3c0,13.8,0,27.5,0,41.3c0,5.6-0.2,11.1-0.2,16.7c0,1.5-0.4,2.3-2,2.6
	c-1.3,0.2-2.5,0.9-3.7,1.4"/>
<path fill="none" stroke="#000000" stroke-width="4" stroke-linecap="round" stroke-linejoin="round" stroke-miterlimit="10" d="
	M699.5,277.6c0.1,1-0.7,1.4-1.2,2c-1.1,1.3-3.1,2-2.9,4.2c0,0.5-0.9,1.1-1.6,1.1c-0.4,0-0.8,0.1-1.1,0c-4.4-0.9-7.7,1.2-10.4,4.3
	c-1,1.1-1.8,1.9-3.4,1.7c-2.1-0.3-2.6,0.9-2.6,2.8c0.1,8.6,0,17.1,0,25.7c0,1.1-0.1,2.2-0.2,3.3c-4.1,1.2-8.2,0.4-12.3,0.6
	c-0.1,0-0.2,0-0.3,0c-2.3-3.9-7.1-3.6-10.2-6.2"/>
<path fill="none" stroke="#000000" stroke-width="4" stroke-linecap="round" stroke-linejoin="round" stroke-miterlimit="10" d="
	M1005.2,327.3c-1.3-0.5-2.6-0.5-4,0"/>
</svg>
